<svg xmlns="http://www.w3.org/2000/svg" viewBox="0 0 1440 320"><path fill="#fff" fill-opacity="1" d="M0,256L20,250.7C40,245,80,235,120,208C160,181,200,139,240,144C280,149,320,203,360,197.3C400,192,440,128,480,138.7C520,149,560,235,600,266.7C640,299,680,277,720,240C760,203,800,149,840,128C880,107,920,117,960,138.7C1000,160,1040,192,1080,202.7C1120,213,1160,203,1200,202.7C1240,203,1280,213,1320,218.7C1360,224,1400,224,1420,224L1440,224L1440,320L1420,320C1400,320,1360,320,1320,320C1280,320,1240,320,1200,320C1160,320,1120,320,1080,320C1040,320,1000,320,960,320C920,320,880,320,840,320C800,320,760,320,720,320C680,320,640,320,600,320C560,320,520,320,480,320C440,320,400,320,360,320C320,320,280,320,240,320C200,320,160,320,120,320C80,320,40,320,20,320L0,320Z"></path></svg>