<svg xmlns="http://www.w3.org/2000/svg" viewBox="0 0 1440 320" preserveAspectRatio="none"><path fill="#fff" fill-opacity="1" d="M0,64L21.8,80C43.6,96,87,128,131,170.7C174.5,213,218,267,262,261.3C305.5,256,349,192,393,186.7C436.4,181,480,235,524,261.3C567.3,288,611,288,655,250.7C698.2,213,742,139,785,128C829.1,117,873,171,916,176C960,181,1004,139,1047,112C1090.9,85,1135,75,1178,101.3C1221.8,128,1265,192,1309,213.3C1352.7,235,1396,213,1418,202.7L1440,192L1440,320L1418.2,320C1396.4,320,1353,320,1309,320C1265.5,320,1222,320,1178,320C1134.5,320,1091,320,1047,320C1003.6,320,960,320,916,320C872.7,320,829,320,785,320C741.8,320,698,320,655,320C610.9,320,567,320,524,320C480,320,436,320,393,320C349.1,320,305,320,262,320C218.2,320,175,320,131,320C87.3,320,44,320,22,320L0,320Z"></path></svg>